<svg width="32" height="32" viewBox="0 0 32 32" fill="none" xmlns="http://www.w3.org/2000/svg">
<circle cx="14.5" cy="15.75" r="14.5" fill="white"/>
<path d="M2.92956 23.8967L6.43608 27.7313L1.36194 28.8507L2.92956 23.8967Z" fill="white"/>
<path d="M15.6797 0C19.8984 0 23.8359 1.6875 26.7188 4.64062C29.6719 7.59375 31.5 11.4609 31.5 15.6797C31.5 24.2578 24.3281 31.2891 15.6797 31.2891C13.0781 31.2891 10.5469 30.5859 8.22656 29.3906L0 31.5L2.17969 23.4141C0.84375 21.0938 0.0703125 18.4219 0.0703125 15.6094C0.0703125 7.03125 7.10156 0 15.6797 0ZM15.75 2.67188C8.57812 2.67188 2.74219 8.50781 2.74219 15.6094C2.74219 18.0703 3.44531 20.4609 4.71094 22.5703L5.0625 23.0625L3.72656 27.8438L8.64844 26.5078L9.07031 26.7891C11.1094 27.9844 13.3594 28.6172 15.6797 28.6172C22.8516 28.6172 28.8281 22.7812 28.8281 15.6797C28.8281 12.1641 27.3516 8.92969 24.8906 6.46875C22.4297 4.00781 19.1953 2.67188 15.75 2.67188ZM10.8984 8.4375C11.1797 8.4375 11.4609 8.36719 11.8125 9.14062C12.0938 9.91406 12.9375 11.8125 13.0078 12.0234C13.0781 12.2344 13.1484 12.4453 13.0078 12.7266C12.3047 14.2031 11.4609 14.1328 11.8828 14.8359C13.4297 17.4375 14.9062 18.3516 17.2266 19.4766C17.5781 19.6875 17.7891 19.6172 18.0703 19.4062C18.2812 19.125 19.0547 18.2109 19.2656 17.8594C19.5469 17.4375 19.8281 17.5078 20.1797 17.6484C20.5312 17.7891 22.4297 18.7031 22.8516 18.9141C23.2031 19.125 23.4844 19.1953 23.5547 19.4062C23.6953 19.5469 23.6953 20.3203 23.3438 21.2344C22.9922 22.1484 21.4453 22.9922 20.7422 23.0625C19.4766 23.2734 18.4922 23.2031 16.0312 22.0781C12.0938 20.3906 9.5625 16.4531 9.35156 16.2422C9.14062 15.9609 7.80469 14.1328 7.80469 12.1641C7.80469 10.2656 8.78906 9.35156 9.14062 8.92969C9.49219 8.50781 9.91406 8.4375 10.1953 8.4375H10.8984Z" fill="#232323"/>
<path d="M15.6797 0C19.8984 0 23.8359 1.6875 26.7188 4.64062C29.6719 7.59375 31.5 11.4609 31.5 15.6797C31.5 24.2578 24.3281 31.2891 15.6797 31.2891C13.0781 31.2891 10.5469 30.5859 8.22656 29.3906L0 31.5L2.17969 23.4141C0.84375 21.0938 0.0703125 18.4219 0.0703125 15.6094C0.0703125 7.03125 7.10156 0 15.6797 0ZM15.75 2.67188C8.57812 2.67188 2.74219 8.50781 2.74219 15.6094C2.74219 18.0703 3.44531 20.4609 4.71094 22.5703L5.0625 23.0625L3.72656 27.8438L8.64844 26.5078L9.07031 26.7891C11.1094 27.9844 13.3594 28.6172 15.6797 28.6172C22.8516 28.6172 28.8281 22.7812 28.8281 15.6797C28.8281 12.1641 27.3516 8.92969 24.8906 6.46875C22.4297 4.00781 19.1953 2.67188 15.75 2.67188ZM10.8984 8.4375C11.1797 8.4375 11.4609 8.36719 11.8125 9.14062C12.0938 9.91406 12.9375 11.8125 13.0078 12.0234C13.0781 12.2344 13.1484 12.4453 13.0078 12.7266C12.3047 14.2031 11.4609 14.1328 11.8828 14.8359C13.4297 17.4375 14.9062 18.3516 17.2266 19.4766C17.5781 19.6875 17.7891 19.6172 18.0703 19.4062C18.2812 19.125 19.0547 18.2109 19.2656 17.8594C19.5469 17.4375 19.8281 17.5078 20.1797 17.6484C20.5312 17.7891 22.4297 18.7031 22.8516 18.9141C23.2031 19.125 23.4844 19.1953 23.5547 19.4062C23.6953 19.5469 23.6953 20.3203 23.3438 21.2344C22.9922 22.1484 21.4453 22.9922 20.7422 23.0625C19.4766 23.2734 18.4922 23.2031 16.0312 22.0781C12.0938 20.3906 9.5625 16.4531 9.35156 16.2422C9.14062 15.9609 7.80469 14.1328 7.80469 12.1641C7.80469 10.2656 8.78906 9.35156 9.14062 8.92969C9.49219 8.50781 9.91406 8.4375 10.1953 8.4375H10.8984Z" stroke="black"/>
</svg>
